<svg id="Layer_1" data-name="Layer 1" xmlns="http://www.w3.org/2000/svg" viewBox="0 0 600 600"><defs><style>.cls-1{fill:#1822d5;}</style></defs><g id="Layer_2" data-name="Layer 2"><g id="Слой_1" data-name="Слой 1"><polygon points="122.08 362.84 104.34 362.84 104.34 257.33 122.08 239.61 122.08 362.84"/><rect x="122.09" y="239.59" width="68.37" height="17.75"/><rect x="122.09" y="292.35" width="68.37" height="17.75"/><polygon points="325.99 362.84 308.25 345.1 308.25 257.33 325.99 239.61 325.99 362.84"/><rect x="325.96" y="239.59" width="68.37" height="17.75"/><rect x="325.99" y="292.33" width="68.37" height="17.75"/><rect x="325.99" y="345.09" width="68.37" height="17.75"/><polygon points="426.91 362.84 411.86 362.84 411.86 353.45 482.98 239.59 498.03 239.59 498.03 248.98 426.91 362.84"/><polygon points="482.98 362.84 498.03 362.84 498.03 353.45 426.91 239.59 411.86 239.59 411.86 248.98 482.98 362.84"/><polygon points="223.8 362.84 206.06 345.1 206.06 239.61 223.8 239.61 223.8 362.84"/><rect x="223.8" y="345.09" width="68.37" height="17.75"/><polygon class="cls-1" points="53 332.13 53 388.44 53 414.01 78.57 414.01 134.89 414.01 134.89 388.44 78.57 388.44 78.57 332.13 53 332.13"/><polygon class="cls-1" points="467.38 213.82 523.66 213.82 523.66 270.13 549.26 270.13 549.26 213.82 549.26 188.25 523.66 188.25 467.38 188.25 467.38 213.82"/></g></g></svg>